<?xml version="1.0" standalone="no"?>
<!DOCTYPE svg PUBLIC "-//W3C//DTD SVG 1.1//EN" "http://www.w3.org/Graphics/SVG/1.1/DTD/svg11.dtd">
<svg xmlns="http://www.w3.org/2000/svg">
<metadata>Generated by Fontastic.me</metadata>
<defs>
<font id="novanet-icons" horiz-adv-x="512">
<font-face font-family="novanet-icons" units-per-em="512" ascent="480" descent="-32"/>
<missing-glyph horiz-adv-x="512" />

<glyph glyph-name="backend" unicode="&#97;" d="M400 402l-288 0c-19 0-35-15-35-34l0-224c0-19 16-34 35-34l288 0c19 0 35 15 35 34l0 224c0 19-16 34-35 34z m-7-25c-1 2-1 4 0 6 2 1 4 1 6 0l5-5 4 5c2 1 4 1 6 0 2-2 2-4 0-6l-5-5 5-4c2-2 2-4 0-6-1-1-2-1-3-1-1 0-2 0-3 1l-4 5-5-5c-1-1-2-1-3-1-1 0-2 0-3 1-1 2-1 4 0 6l5 4z m-31-2l15 0c2 0 4-1 4-4 0-2-2-4-4-4l-15 0c-3 0-4 2-4 4 0 3 2 4 4 4z m61-231c0-12-11-22-23-22l-288 0c-13 0-23 10-23 22l0 202 334 0z m-242 65l7 0c0 0 1-2 1-4 1-1 2-2 2-3l-4-4c-4-4-4-10 0-13l20-21c4-4 10-4 13 0l5 5c1 0 3-1 4-2 1 0 3 0 3-1l0-7c0-5 4-9 9-9l29 0c6 0 10 4 10 9l0 7 6 3 5-5c4-4 10-4 14 0l20 20c4 4 4 10 0 13l-4 5c0 1 2 3 2 5 1 1 1 2 1 2l7 0c5 0 9 4 9 10l0 29c0 5-4 9-9 9l-6 0-3 8 4 4c4 4 4 10 0 13l-21 21c-4 4-10 4-13 0l-4-4c-2 0-3 2-5 2-1 1-3 1-3 2l0 5c0 5-4 9-9 9l-29 0c-6 0-10-4-10-9l0-6-7-3-4 4c-4 4-10 4-14 0l-20-21c-4-4-4-10 0-13l4-4c-1-1-2-3-2-4 0-2-1-3-1-4l-6 0c-5 0-9-4-9-9l0-29c-1-6 3-10 8-10z m3 36l5 0c4 0 8 3 10 8 0 0 0 1 1 3 1 2 1 4 1 4 2 4 2 10-2 13l-2 3 16 17 3-3c2-2 5-4 8-4 2 0 3 1 4 1l9 4c4 2 7 6 7 10l0 4 24 0 0-4c0-4 3-8 8-10 0 0 1 0 3-1 2-1 5-2 5-2 4-2 9-1 12 2l3 3 17-17-3-3c-3-3-4-8-2-12l3-8c1-4 5-7 10-7l4 0 0-24-5 0c-4 0-8-3-10-7 0 0 0-1 0-3-2-2-2-5-2-5-2-4-2-9 2-12l3-3-17-17-4 4c-2 2-4 3-7 3-2 0-4-1-4-1l-8-3c-4-2-7-6-7-10l0-5-24 0 0 5c0 4-3 9-8 10 0 0-1 0-3 1-2 1-3 2-4 2-4 2-9 1-12-2l-4-4-17 16 3 4c3 3 4 8 2 12 0 0-1 1-2 3-1 2-1 4-1 4-2 4-6 7-10 7l-5 0 0 24z m72-43c17 0 31 14 31 31 0 17-14 31-31 31-17 0-31-14-31-31 0-17 14-31 31-31z m0 50c10 0 19-8 19-18 0-11-9-19-19-19-10 0-19 8-19 19 0 10 9 18 19 18z"/>
<glyph glyph-name="ball" unicode="&#98;" d="M180 242c2 2 2 6-1 8-2 2-6 2-8 0l-50-55c-2-3-2-7 1-9 1-1 2-1 4-1 1 0 3 0 4 2z m42-14c-3 2-7 2-9 0l-84-94c-2-2-2-6 1-8 1-1 2-2 4-2 1 0 3 1 4 2l84 93c2 3 2 7 0 9z m22-38l-37-42c-2-2-2-6 0-8 2-2 3-2 4-2 2 0 4 1 5 2l37 42c2 3 2 7-1 9-2 2-6 2-8-1z m-127-16c0-3-2-5-5-5-4 0-6 2-6 5 0 3 2 6 6 6 3 0 5-3 5-6z m-12-13c0-3-3-5-5-5-3 0-6 2-6 5 0 3 3 5 6 5 2 0 5-2 5-5z m-12-8c-2 1-5 1-7 0-1-2-1-5 1-7 1-1 4-1 6 1 1 1 1 4 0 6z m32-39c0-3-2-5-5-5-4 0-6 2-6 5 0 3 2 6 6 6 3 0 5-3 5-6z m-12-13c0-3-2-5-5-5-3 0-5 2-5 5 0 3 2 5 5 5 3 0 5-2 5-5z m-18-8c-2-2-2-5 0-6 2-2 4-2 6 0 2 2 2 5 0 6-2 2-5 2-6 0z m108 35c0-3-2-5-6-5-3 0-5 2-5 5 0 4 2 6 5 6 4 0 6-2 6-6z m-12-13c0-3-2-5-5-5-3 0-5 2-5 5 0 3 2 5 5 5 3 0 5-2 5-5z m-19-8c-1-2-1-5 1-6 2-2 4-2 6 0 2 2 1 4 0 6-2 2-5 2-7 0z m141 320c-63 0-114-51-114-113 0-62 51-112 114-112 63 0 114 50 114 112 0 62-51 113-114 113z m0-213c-56 0-102 45-102 101 0 55 46 100 102 100 56 0 101-45 101-100 0-56-45-101-101-101z m81 111c-32 7-68-1-79-4-4 3-10 10-17 19 13 4 39 11 64 8 3 0 6 2 6 6 1 3-2 6-5 6-30 4-61-6-72-10-6 8-11 17-15 27 13 3 45 11 69 7 3 0 6 2 7 5 0 3-2 6-5 7-33 6-79-9-81-10-3-1-5-4-4-8 10-30 34-57 43-65-1-5-4-13-8-23-10 8-29 27-40 49-1 3-5 4-8 3-3-2-4-5-3-8 13-27 37-48 46-56-4-8-9-17-15-25-10 9-33 32-42 54-1 3-5 4-7 3-4-1-5-5-4-7 12-31 48-62 50-63 1-1 2-2 4-2 1 0 3 1 4 2 20 23 31 55 35 69 4 1 14 3 26 4-3-12-10-38-25-58-2-3-1-7 1-9 2 0 3-1 4-1 2 0 4 1 5 3 17 24 25 55 27 67 10 0 21 0 31-1-4-13-13-45-28-62-2-3-2-7 1-9 1-1 2-1 4-1 1 0 3 0 4 2 22 25 32 71 32 73 1 4-1 7-5 8z"/>
<glyph glyph-name="brain" unicode="&#99;" d="M358 85c-2 0-4 1-5 3-11 17-22 39-22 40-1 2 0 5 1 7 2 1 5 2 7 1 8-5 17-7 26-7 31 0 56 25 56 56 0 3 2 6 6 6 25 4 44 26 44 52l0 5c0 45-14 82-42 110-58 57-157 57-158 57-142 0-196-51-196-51-22-20-34-47-34-76 0-55 44-99 99-99l10 0c2 0 4-2 5-4 12-21 35-35 60-35 6 0 63 4 108-55 2-2 1-6-2-8-2-2-6-2-8 1-42 55-96 50-97 50 0 0 0 0-1 0-28 0-54 14-69 38l-6 0c-61 0-112 50-112 112 0 32 15 63 39 84 2 2 56 55 204 55 4 0 105 0 166-61 30-31 46-70 46-118l0-5c0-30-21-56-50-62-2-36-32-63-68-63-5 0-11 0-17 2 4-8 10-17 15-25 2-3 1-6-2-8-1-1-2-2-3-2z m-82 105l-33 0c-3 0-5 3-5 5l0 8c0 3-2 6-5 6 0 0-2 1-4 2-3 1-5 2-6 2-2 1-6 1-7-1l-6-5c-2-2-5-2-7 0l-24 23c-2 2-2 6 0 8l6 5c2 2 2 5 1 7 0 1-1 2-2 5-1 3-2 5-2 5-1 2-3 4-6 4l-7 0c-3 0-6 3-6 6l0 33c0 3 3 5 6 5l7 0c2 0 5 2 6 5 0 0 1 2 2 5 1 3 2 5 2 5 1 2 1 6-1 8l-5 4c-2 2-2 6 0 8l24 23c2 2 5 2 7 0l4-4c2-1 3-2 5-2 1 0 2 0 3 0l11 5c2 1 4 3 4 6l0 7c0 2 3 5 6 5l33 0c3 0 5-3 5-5l0-7c0-2 2-5 4-6 0 0 2 0 5-1 3-2 6-3 6-3 2-1 6-1 8 1l4 5c2 2 6 2 8 0l23-24c2-2 2-5 0-7l-5-5c-1-2-2-5-1-7l4-11c1-2 4-4 6-4l8 0c2 0 5-3 5-6l0-33c0-3-3-5-5-5l-8 0c-3 0-5-2-6-5 0 0-1-1-1-3-1-2-2-5-3-7-1-2-1-5 1-7l6-5c2-2 2-6 0-8l-24-23c-1-1-2-2-4-2-1 0-2 0-3 2l-6 5c-1 1-3 2-5 2-1 0-2 0-2 0l-10-4c-3-1-5-4-5-7l0-8c-1-3-3-5-6-5z m-28 10l23 0 0 3c0 7 5 14 11 16l10 4c1 0 4 1 6 1 5 0 9-2 12-5l2-2 17 17-2 2c-5 4-6 12-3 19 0 0 1 3 2 5 1 2 1 3 1 3 2 7 9 12 16 12l2 0 0 23-2 0c-6 0-13 5-15 11l-4 10c-3 6-1 14 3 19l2 1-17 17-1-2c-3-3-7-5-12-5-2 0-5 1-7 2 0 0-3 2-6 3-2 1-3 1-3 1-7 2-12 9-12 16l0 1-23 0 0-1c0-7-5-13-11-16l-11-4c-1-1-4-2-6-2-5 0-9 2-12 5l-1 2-16-17 1-1c5-5 6-13 3-19 0 0-2-2-2-5-1-2-2-4-2-4-2-7-8-11-16-11l-2 0 0-24 4 0c6 0 13-5 15-11 0-1 1-2 2-5 1-2 1-3 1-3 4-6 2-15-2-20l-2-2 16-16 2 2c3 3 8 5 12 5 3 0 5 0 7-2 1 0 2-1 5-2 2 0 3-1 3-1 7-2 12-8 12-15l0-5z m24 135c0 6-6 12-13 12-7 0-12-6-12-12l3-62c0-5 4-9 9-9 5 0 10 4 10 9z m-2-91c0 6-4 10-10 10-6 0-11-4-11-10 0-6 5-11 11-11 6 0 10 5 10 11z"/>
<glyph glyph-name="chat" unicode="&#100;" d="M156 218c0-12-11-23-23-23-13 0-23 11-23 23 0 13 10 23 23 23 12 0 23-10 23-23z m-23-27c-29 0-52-23-52-52 0-3 2-5 5-5l23 0 0-5c0-13 11-24 24-24 13 0 24 11 24 24l0 5 22 0c4 0 6 2 6 5 0 29-23 52-52 52z m261 27c0-12-10-23-23-23-12 0-23 11-23 23 0 13 11 23 23 23 13 0 23-10 23-23z m-23-27c-29 0-52-23-52-52 0-3 2-5 6-5l22 0 0-5c0-13 11-24 24-24 13 0 24 11 24 24l0 5 23 0c3 0 5 2 5 5 0 29-23 52-52 52z m-96-21c0-13-10-23-23-23-13 0-23 10-23 23 0 12 10 23 23 23 13 0 23-11 23-23z m-23-27c-29 0-52-23-52-52 0-4 2-6 5-6l23 0 0-5c0-13 11-24 24-24 13 0 24 11 24 24l0 5 23 0c3 0 5 2 5 6 0 29-23 52-52 52z m-49 229c-8 0-16-7-16-16 0-9 8-16 16-16 9 0 16 7 16 16 0 9-7 16-16 16z m0-22c-3 0-6 3-6 6 0 4 3 6 6 6 4 0 6-2 6-6 0-3-2-6-6-6z m51 22c-8 0-16-7-16-16 0-9 8-16 16-16 9 0 16 7 16 16 0 9-7 16-16 16z m0-22c-3 0-6 3-6 6 0 4 3 6 6 6 4 0 6-2 6-6 0-3-2-6-6-6z m51 22c-9 0-16-7-16-16 0-9 7-16 16-16 9 0 16 7 16 16 0 9-7 16-16 16z m0-22c-3 0-6 3-6 6 0 4 3 6 6 6 3 0 6-2 6-6 0-3-3-6-6-6z m60-89c1 1 1 4 0 5l-26 43c8 15 13 31 13 48-1 55-45 99-99 99-54 0-99-44-99-98 0-16 4-30 11-44 0-1 1-3 2-4l-27-43c-1-2 0-4 1-6 1-1 3-2 5-1l52 15c10-6 21-11 32-14l18-51c1-2 3-3 5-3 2 0 4 1 5 3l20 52c10 3 20 7 29 13l52-16c3 0 5 0 6 2z m-56 24c0 0 0 0 0 0-2 1-4 1-6 0-9-7-19-11-30-14-1 0-3-1-3-3l-17-42-14 41c0 2-2 3-3 3-12 3-23 8-33 14-2 1-3 2-5 1l-42-13 21 35c0 2 0 4 0 6 0 0 0 0 0 0-2 2-2 4-4 6-6 12-8 25-8 39 0 48 39 88 88 88 48 0 88-40 88-88 0-16-4-32-12-45-1-2-1-4 0-6 0 0 0 0 0 0l21-34z"/>
<glyph glyph-name="comment" unicode="&#101;" d="M261 284c-16 0-29-13-29-29 0-16 13-29 29-29 16 0 29 13 29 29 0 16-14 29-29 29z m0-39c-5 0-10 5-10 10 0 5 5 9 10 9 5 0 9-4 9-9 0-5-4-10-9-10z m-93 39c-16 0-29-13-29-29 0-16 13-29 29-29 16 0 29 13 29 29 0 16-13 29-29 29z m0-39c-5 0-10 5-10 10 0 5 5 9 10 9 5 0 10-4 10-9 0-5-4-10-10-10z m185 39c-16 0-29-13-29-29 0-16 13-29 29-29 16 0 29 13 29 29 0 16-13 29-29 29z m0-39c-5 0-10 5-10 10 0 5 5 9 10 9 5 0 10-4 10-9 0-5-5-10-10-10z m-288-160c-2 0-4 1-5 3-1 2-1 5 0 7l49 78c-2 2-3 5-5 8-11 24-17 49-17 75 0 94 77 171 171 171 94 0 170-77 170-171 0-94-76-171-170-171-34 0-67 10-96 30l-95-29c-1-1-2-1-2-1z m102 41c27-18 58-28 91-28 87 0 158 71 158 158 0 87-71 158-158 158-88 0-159-71-159-158 0-24 6-48 16-70 2-3 4-7 6-10 1-2 1-5 0-7l-43-67 83 25c2 1 4 1 6-1 0 0 0 0 0 0z"/>
<glyph glyph-name="compass" unicode="&#102;" d="M256 86c-46 0-88 17-120 50-33 32-50 75-50 120 0 45 17 88 50 120 32 32 74 50 120 50 45 0 88-18 120-50 67-67 67-175 0-241-32-32-74-49-120-49z m0 328c-42 0-82-16-112-46-30-30-47-70-47-112 0-42 17-82 47-112 30-30 70-46 112-46 42 0 82 16 112 46 61 62 61 163 0 224-30 30-70 46-112 46z m107-49c-2 2-5 2-7 1l-81-52c-6 2-13 3-19 3-16 0-32-6-43-18-12-11-18-27-18-43 0-6 1-13 4-20l-51-82c-2-3-1-6 1-8 1-1 3-1 4-1 1 0 2 0 3 0l80 53c6-2 13-3 19-3 16 0 32 6 43 18 17 17 22 41 15 63l51 81c2 3 1 6-1 8z m-73-143c-9-10-21-15-34-15-13 0-25 5-35 15-9 9-14 21-14 34 0 13 5 25 14 34 10 10 22 15 35 15 13 0 25-5 34-15 20-18 20-49 0-68z m-35-75c-3 0-6-2-6-6l0-21c0-4 3-6 6-6 4 0 6 2 6 6l0 21c0 4-2 6-6 6z m138 116l-22 0c-3 0-6-3-6-6 0-3 3-6 6-6l22 0c3 0 6 3 6 6 0 3-3 6-6 6z m-52-84c-2 3-6 3-8 0-3-2-3-6 0-8l15-16c2-1 3-1 5-1 1 0 3 0 4 1 3 3 3 6 0 9z m-86 221c-3 0-6-3-6-6l0-22c0-3 3-6 6-6 4 0 6 3 6 6l0 22c0 3-2 6-6 6z m-115-137l-21 0c-4 0-6-3-6-6 0-3 2-6 6-6l21 0c4 0 6 3 6 6 0 3-2 6-6 6z m23 95c-3 2-6 2-9 0-2-3-2-6 0-9l16-15c1-1 3-1 4-1 2 0 4 0 5 1 2 3 2 6 0 9z"/>
<glyph glyph-name="connection" unicode="&#103;" d="M215 309c1 3 0 6-4 8-3 1-6-1-7-4-5-12-7-25-9-39-1-6-1-12-1-19 0-7 1-14 2-21 1-11 4-23 8-34 1-2 3-4 5-4 1 0 2 0 2 1 4 1 5 4 4 7-4 11-6 22-8 32 0 7-1 13-1 20 0 6 0 12 1 18 1 12 4 24 8 35z m247 51c-33 41-81 64-133 64-39 0-77-13-107-38-24-18-41-43-51-69l-44 0c-3 0-6-3-6-6l0-23-28-5c-1 0-2-1-4-2 0-1-1-2-2-5l-64 0c-3 0-6-2-6-6 0-3 3-6 6-6l60 0c-1-5-2-12 0-19l-47 0c-3 0-6-3-6-6 0-3 3-6 6-6l51 0c0-1 1-3 2-4 1-1 2-2 4-3l28-3 0-20c0-4 3-6 6-6l42 0c6-18 15-35 27-50 33-41 81-64 133-64 39 0 77 13 107 38 73 59 84 166 26 239z m-341-125l-23 3c-8 16-2 29 0 34l23 4z m12-27l0 97 46 0c-3-10-5-20-6-30l-25 0c-3 0-6-3-6-6l0-27c0-3 3-6 6-6l25 0c2-9 3-19 6-27l-46 0z m39 55l0-15-17 0 0 15z m256-133c-16-13-34-22-52-28 2 11-5 30-20 46-7 7-15 13-21 17 0 11-4 20-11 25-11 7-27 4-40-8-8 11-27 15-47 9-20-6-34-22-32-36-10 13-18 27-24 41l6 0c4 0 6 3 6 6 0 1 0 2 0 3-12 35-12 71 0 104 1 2 0 4-1 6-1 1-3 2-5 2l-3 0c10 23 25 43 46 60 3 3 7 5 10 8-3-12-1-25 7-35 2-3 4-5 7-7 21-13 43-2 43-2 2 0 3 2 5 2 3 3 5 5 7 8 7-2 16-1 22 4 10 8 12 23 4 33-6 8-16 10-26 8 0 0-1 1-1 2-4 4-8 8-12 10 11 2 22 4 33 4 48 0 93-22 123-59-12-2-25-7-37-16-17-14-26-33-27-50-4-1-8-3-11-6-16-13-18-36-5-52 12-16 36-19 52-7 3 3 6 7 9 10 0 0 0-1 1-2 11-15 33-17 47-5 1 1 3 2 4 3-5-37-25-72-57-98z"/>
<glyph glyph-name="database" unicode="&#104;" d="M405 191l-6 0-3 6 4 4c4 4 4 10 0 14l-20 20c-3 3-9 3-13 0l-3-4c-2 1-3 1-5 2-1 1-1 1-2 1l0 174c0 0 0 0 0 1 0 0 0 0 0 0 0 10-52 18-117 18-65 0-118-8-118-18 0 0 0 0 0 0 0-1 0-1 0-1l0-259c0-20 79-27 118-27 7 0 15 1 24 1 0-1 1-2 2-3l20-20c3-4 9-4 13 0l4 4c1 0 3-1 4-1 1-1 2-1 3-1l0-7c0-5 4-9 9-9l28 0c6 0 10 4 10 9l0 7 6 2 5-4c3-4 9-4 13 0l20 20c3 4 3 10 0 13l-5 5c1 1 2 2 2 4 1 1 1 2 1 2l6 0c5 0 9 4 9 10l0 28c0 4-4 9-9 9z m-271 122c18-7 59-12 106-12 39 0 85 4 105 12l0-65-26 0c-5 0-9-4-9-9l0-5-7-3-4 3c-4 4-10 4-13 0l-10-9c-11-1-23-1-36-1-57 0-97 7-106 13l0 76z m211 12c-10-6-50-12-106-12-54 0-94 6-105 12 0 0 0 0-1 0l0 76c19-6 60-10 106-10 47 0 87 4 106 10l0-75c0 0 0 0 0-1z m-77-190c-9-1-18-1-28-1-59 0-100 10-106 16l0 73c20-7 65-11 106-11 8 0 16 0 24 1-2-4-2-9 1-12l4-4c0 0-1-2-1-3-1-1-1-3-2-3l-5 0c-5 0-9-4-9-10l0-28c0-5 4-9 9-9l6 0c0-1 1-2 1-4 1-1 2-2 2-3z m134 21l-4 0c-5 0-9-4-10-8 0 0-1 0-1-2-1-2-2-4-2-4-2-4-1-10 2-13l3-3-16-16-3 3c-2 2-5 3-8 3-1 0-3 0-4 0l-7-4c-4-1-7-5-7-10l0-4-23 0 0 4c0 5-3 9-7 10 0 0-2 1-3 2-2 0-4 1-4 1-4 2-9 1-12-2l-3-3-16 16 3 3c3 3 4 9 2 13 0 0-1 1-2 3-1 2-1 3-1 3-1 5-6 8-10 8l-5 0 0 23 4 0c5 0 9 3 10 7 0 0 1 2 2 4 0 2 1 3 1 3 2 4 1 10-2 12l-3 3 17 16 2-2c2-2 5-3 8-3 1 0 3 0 4 0l8 4c4 2 7 6 7 10l0 4 23 0 0-4c0-4 3-9 7-10 0 0 1 0 3-1 2-1 4-2 4-2 4-2 9-1 13 1l2 3 16-16-3-3c-3-3-4-8-2-12l3-8c1-4 6-7 10-7l4 0z m-69 41c-17 0-30-14-30-30 0-17 14-30 30-30 16 0 30 13 30 30 0 17-14 30-30 30z m0-48c-10 0-18 8-18 18 0 10 8 18 18 18 10 0 18-8 18-18 0-10-8-18-18-18z"/>
<glyph glyph-name="frontend" unicode="&#105;" d="M120 279l274 0c6 0 12 5 12 12l0 16c0 6-5 12-12 12l-274 0c-6 0-12-5-12-12l0-16c0-7 5-12 12-12z m274 28l0-16-274 0 0 16z m-274-161l114 0c6 0 12 6 12 12l0 93c0 7-5 12-12 12l-114 0c-6 0-12-5-12-12l0-93c0-6 5-12 12-12z m114 105l0-92-114 0 0 92z m160 12l-114 0c-7 0-12-5-12-12l0-93c0-6 5-12 12-12l114 0c6 0 12 5 12 12l0 93c0 7-6 12-12 12z m0-105l-114 0 0 93 114 0z m6 244l-288 0c-19 0-35-15-35-34l0-224c0-19 16-34 35-34l288 0c19 0 35 15 35 34l0 224c0 19-16 34-35 34z m-7-25c-1 2-1 4 0 6 2 1 4 1 6 0l5-5 4 5c2 1 4 1 6 0 2-2 2-4 0-6l-5-5 5-4c2-2 2-4 0-6-1-1-2-1-3-1-1 0-2 0-3 1l-4 5-5-5c-1-1-2-1-3-1-1 0-2 0-3 1-1 2-1 4 0 6l5 4z m-31-2l15 0c2 0 4-1 4-4 0-2-2-4-4-4l-15 0c-3 0-4 2-4 4 0 3 2 4 4 4z m61-231c0-12-11-22-23-22l-288 0c-13 0-23 10-23 22l0 202 334 0z"/>
<glyph glyph-name="gear" unicode="&#106;" d="M287 85l-62 0c-7 0-13 6-13 14l0 16c0 1-1 3-3 3 0 0-3 1-8 3-5 3-9 5-10 5 0 0 0 0-1 0-1 0-3 0-3-1l-12-11c-4-5-13-5-18 0l-43 43c-6 6-6 14 0 19l11 11c1 1 1 3 0 4 0 0-2 3-4 8-2 6-3 10-3 10-1 1-3 2-4 2l-16 0c-7 0-13 6-13 14l0 62c0 7 6 13 13 13l15 0c1 0 3 1 3 3 0 0 2 4 4 9 2 5 4 9 4 10 0 1 0 3-1 4l-10 10c-5 5-5 13 0 19l44 43c5 5 14 5 18 0l10-9c0-1 2-1 3-1 1 0 1 0 2 0l19 8c1 0 2 2 2 4l0 14c0 7 6 13 14 13l61 0c8 0 14-6 14-13l0-14c0-1 1-3 2-3 0 0 3-1 8-3 7-2 12-5 12-6 0 0 1 0 1 0 2 0 3 0 3 1l10 9c5 5 13 5 18 0l44-43c2-3 4-6 4-10 0-3-1-6-4-9l-10-10c-1-1-2-3-1-5l7-18c1-2 3-3 4-3l15 0c7 0 13-6 13-13l0-62c0-7-6-13-13-13l-15 0c-2 0-4-1-4-3 0 0 0-2-2-6-3-6-6-12-6-12 0-1 0-3 1-4l11-11c5-5 5-13 0-19l-43-43c-5-5-14-5-19 0l-11 11c-1 1-2 1-4 1 0 0-1 0-1 0l-17-7c-2-1-3-3-3-4l0-17c0-7-6-13-13-13z m-97 53c3 0 5 0 7-2 0 0 4-2 9-4 5-1 7-2 7-2 6-2 11-8 11-15l0-16c0-1 1-1 2-1l61 0c1 0 2 0 2 1l0 16c0 7 4 13 10 15l17 7c1 1 4 1 6 1 5 0 9-1 12-4l11-12c1 0 1 0 2 0l44 44c0 1 0 1 0 2l-11 11c-5 5-6 12-3 18 0 0 3 5 5 11 1 4 2 5 2 6 2 6 8 11 14 11l16 0c0 0 1 0 1 1l0 61c0 0-1 1-1 1l-15 0c-7 0-13 5-15 11l-7 18c-3 5-1 13 3 18l10 10c0 0 0 0 0 0 0 1 0 1 0 1l-44 44c-1 0-1 0-2 0l-9-10c-3-2-7-4-12-4-2 0-5 1-7 2 0 0-5 2-10 4-5 2-7 3-7 3-6 2-11 8-11 15l0 13c0 1-1 1-2 1l-61 0c0 0-1 0-1-1l0-13c0-7-5-13-11-16l-18-7c-2-1-4-1-7-1-4 0-9 1-11 4l-10 10c0 0-1 0-2 0l-43-44c0 0 0-1 0-1l10-10c5-5 6-13 3-19 0 0-2-3-4-9-2-4-3-8-3-8-2-6-8-11-14-11l-15 0c-1 0-1 0-1-1l0-62c0 0 0-1 1-1l15 0c7 0 13-5 15-11 0 0 1-4 3-8 2-5 4-8 4-8 3-6 2-14-3-18l-11-12c0 0 0-1 0-1l44-44c0 0 1 0 1 0l12 12c3 2 7 4 11 4z m66 49c-39 0-70 31-70 69 0 39 31 70 70 70 38 0 69-31 69-70 0-39-31-69-69-69z m0 127c-32 0-58-26-58-58 0-32 26-58 58-58 32 0 57 26 57 58 0 32-25 58-57 58z"/>
<glyph glyph-name="index" unicode="&#107;" d="M256 85c-94 0-171 77-171 171 0 94 77 171 171 171 94 0 171-77 171-171 0-94-77-171-171-171z m0 329c-87 0-158-71-158-158 0-87 71-158 158-158 87 0 158 71 158 158 0 87-71 158-158 158z m0-213c-30 0-55 25-55 55 0 30 25 55 55 55 30 0 55-24 55-55 0-30-25-55-55-55z"/>
<glyph glyph-name="integration" unicode="&#108;" d="M260 142c-10 0-19-8-19-19 0-11 9-20 19-20 11 0 20 9 20 20 0 11-9 19-20 19z m-138 130c-10 0-19-9-19-20 0-11 9-20 19-20 11 0 20 9 20 20 0 10-8 20-20 20z m130 98c10 0 19 8 19 19 0 11-9 20-19 20-11 0-20-9-20-20 0-11 8-19 20-19z m183-63c-16 17-41 24-63 17l-55 56c0 3 0 6 0 9 0 18-6 34-19 47-12 12-29 19-46 19-18 0-35-7-47-19-17-17-23-41-17-64l-56-55c-20 2-41-4-56-19-25-26-25-67 0-93 17-17 41-23 64-17l55-55c0-3 0-7 0-10 0-17 6-34 19-46 13-13 30-20 46-20 17 0 34 7 47 20 17 16 23 41 17 63l55 56c3-1 7-1 10-1 17 0 34 7 46 19 26 26 26 68 0 93z m-236 59c1 2 2 4 1 6-6 20-1 40 13 55 10 10 24 16 38 16 15 0 28-6 38-16 10-10 16-24 16-38 0-15-6-28-16-38-15-15-36-20-55-13-2 1-5 0-6-2l-50-49c-2 4-5 8-9 11-6 7-15 12-23 15z m129-130l-50-49c-14 4-29 3-42-3l-50 50c4 14 3 29-2 42l49 50c15-4 29-3 43 2l49-49c-4-15-3-30 3-43z m-182-37c-2 2-4 2-6 2-20-7-41-2-55 12-21 21-21 56 0 77 21 21 55 21 76 0 15-15 20-36 13-56-1-2 0-4 1-6l50-49c-4-3-8-6-11-9-7-7-12-15-15-24z m167-53c-2-2-2-4-2-6 7-20 2-40-12-55-21-21-56-21-77 0-10 10-15 24-15 38 0 15 5 28 15 38 15 15 36 20 56 13 2-1 4 0 6 2l49 49c3-4 6-7 9-11 7-7 15-12 24-15z m114 77c-10-10-24-16-38-16-15 0-28 6-38 16-15 15-20 36-13 55 1 2 0 5-2 6l-49 50c4 2 8 5 11 9 7 6 12 15 15 23l53-52c2-2 4-2 6-2 20 7 40 2 55-13 21-21 21-55 0-76z m-18 37c0-10-9-19-20-19-11 0-19 9-19 19 0 11 8 20 19 20 11 0 20-9 20-20z"/>
<glyph glyph-name="lock" unicode="&#109;" d="M336 279c0 1 0 1 0 0l0 67c0 44-36 80-80 80-44 0-80-36-80-80l0-67c-21-20-34-49-34-80 0-63 51-114 114-114 0 0 0 0 0 0 63 0 114 51 114 114 0 31-12 59-34 80z m-80 135c38 0 68-30 68-68l0-56c-5 4-11 8-17 11l0 46c0 28-23 50-51 50-28 0-51-23-51-50l0-46c-6-3-12-7-17-11l0 56c0 38 30 68 68 68z m39-67l0-41c-13 5-26 7-39 7-14 0-26-2-39-7l0 41c0 21 18 38 39 38 21 0 39-17 39-38z m-39-249l0-7 0 7c-56 0-102 45-102 101 0 56 46 102 102 102 28 0 53-11 72-30 19-19 30-45 30-72 0-56-46-101-102-101z m0 160c3 0 6 3 6 6l0 12c0 4-3 6-6 6-3 0-6-2-6-6l0-12c0-3 3-6 6-6z m-59-58c0 3-2 6-6 6l-12 0c-3 0-6-3-6-6 0-3 3-6 6-6l12 0c4 0 6 3 6 6z m9 41c1-1 3-1 4-1 2 0 3 0 5 1 2 3 2 6 0 9l-9 8c-3 3-6 3-9 0-2-2-2-6 0-8z m50 0c-23 0-41-19-41-42 0-23 19-41 41-41 23 0 42 19 42 41 0 23-19 42-42 42z m0-100c-3 0-6-3-6-6l0-12c0-3 3-6 6-6 3 0 6 3 6 6l0 12c0 3-3 6-6 6z m77 65l-12 0c-4 0-6-3-6-6 0-3 2-6 6-6l12 0c3 0 6 3 6 6 0 3-3 6-6 6z m-27-48c-3 3-6 3-9 0-2-2-2-6 0-8l9-9c1-1 3-1 5-1 1 0 3 0 4 1 2 3 2 6 0 9z m-100 0l-9-8c-2-3-2-6 0-9 1-1 3-1 4-1 2 0 4 0 5 1l9 9c2 2 2 6 0 8-3 3-7 3-9 0z m96 82c1 0 3 0 4 1l9 9c2 2 2 6 0 8-2 3-6 3-8 0l-9-8c-3-3-3-6 0-9 1-1 2-1 4-1z"/>
<glyph glyph-name="logo" unicode="&#110;" d="M320 262c-45 0-82 37-82 82 0 46 37 83 82 83 46 0 82-37 82-83 0-45-36-82-82-82z m0 154c-40 0-72-32-72-72 0-39 32-72 72-72 40 0 72 33 72 72 0 40-32 72-72 72z m0-97c-14 0-25 11-25 25 0 14 11 26 25 26 14 0 26-12 26-26 0-14-12-25-26-25z m-152-146c-46 0-83 37-83 82 0 46 37 82 83 82 45 0 82-36 82-82 0-45-37-82-82-82z m0 154c-40 0-72-32-72-71 0-40 32-72 72-72 39 0 72 32 72 72 0 39-33 71-72 71z m0-97c-14 0-26 12-26 26 0 14 12 25 26 25 14 0 25-11 25-25 1-15-11-26-25-26z m152-145c-45 0-82 37-82 83 0 45 37 82 82 82 46 0 82-37 82-82 0-46-36-83-82-83z m0 155c-40 0-72-33-72-72 0-40 32-73 72-73 40 0 72 33 72 73 0 39-32 72-72 72z m0-98c-14 0-25 12-25 26 0 14 11 25 25 25 14 0 26-11 26-25 0-14-12-26-26-26z"/>
<glyph glyph-name="message" unicode="&#111;" d="M398 370l-284 0c-24 0-43-19-43-43l0-142c0-24 20-43 43-43l280 0c25 0 47 20 47 43l0 142c0 24-20 43-43 43z m-4-216l-280 0c-17 0-31 14-31 31l0 111 147-75c7-4 18-6 26-6 8 0 19 2 25 6l148 74 0-110c0-17-19-31-35-31z m-119 78c-4-2-13-4-19-4-6 0-15 2-20 4l-153 77 0 18c0 17 14 31 31 31l284 0c17 0 31-14 31-31l0-18z"/>
<glyph glyph-name="pencil" unicode="&#112;" d="M411 421c-9 9-23 15-36 15-14 0-27-5-37-15l-211-212c0 0-1-1-1-2l-39-87c-4-12 0-18 3-21 3-3 7-5 11-5 3 0 7 1 11 2 0 0 0 0 0 0l87 39c0 0 1 1 2 1l210 211c10 10 16 23 16 37 0 13-6 26-16 37z m-286-305c-4 1-8 3-11 6-4 4-6 8-7 12l27 61 52-53z m71 33l-56 56 147 147 56-56z m167 167l-56 56 13 13 56-56z m40 40l-7-7-56 57 7 6c7 8 17 12 28 12 10 0 20-4 28-12 7-8 11-18 11-28 0-11-4-21-11-28z m-119-267l-162 0c-4 0-6-3-6-6 0-4 2-6 6-6l162 0c4 0 7 2 7 6 0 3-3 6-7 6z"/>
<glyph glyph-name="pin" unicode="&#113;" d="M256 86c-8 0-14 4-18 10l-88 154c-11 18-17 39-17 61 0 70 59 126 130 122 63-3 114-55 115-119 1-23-5-45-16-64l-89-154c-4-6-10-10-17-10z m0 336c-61 0-111-50-111-111 0-20 5-39 15-55l89-154c1-2 4-4 7-4 2 0 5 2 6 4l90 154c10 17 15 37 14 58-1 57-47 104-104 107-2 1-4 1-6 1z m0-150c-22 0-39 18-39 39 0 22 17 39 39 39 22 0 39-17 39-39 0-21-18-39-39-39z"/>
<glyph glyph-name="portfolio" unicode="&#114;" d="M391 358l-117 0-32 38c-1 2-2 2-4 2l-117 0c-31 0-57-25-57-57l0-172c0-31 25-55 57-55l270 0c32 0 57 24 57 55l0 131c0 32-26 58-57 58z m45-189c0-24-20-43-45-43l-270 0c-25 0-45 19-45 43l0 172c0 25 20 45 45 45l114 0 31-38c1-2 3-3 5-3l120 0c25 0 45-20 45-44z m-211 205l-105 0c0 0-27 0-27-27l154 0z m48-78c-16 0-29-13-29-28 0-16 13-29 29-29 16 0 28 13 28 29 0 15-12 28-28 28z m0-65c-16 0-29-13-29-29 0-15 13-28 29-28 16 0 28 13 28 28 0 16-12 29-28 29z m-28 4c0-16-13-29-29-29-15 0-28 13-28 29 0 15 13 28 28 28 16 0 29-13 29-28z"/>
<glyph glyph-name="printer" unicode="&#115;" d="M165 222l175 0c3 0 6 3 6 6 0 4-3 6-6 6l-175 0c-3 0-6-2-6-6 0-3 3-6 6-6z m0-26l175 0c3 0 6 3 6 6 0 3-3 6-6 6l-175 0c-3 0-6-3-6-6 0-3 3-6 6-6z m0-27l175 0c3 0 6 3 6 6 0 3-3 6-6 6l-175 0c-3 0-6-3-6-6 0-3 3-6 6-6z m0-27l175 0c3 0 6 3 6 6 0 4-3 6-6 6l-175 0c-3 0-6-2-6-6 0-3 3-6 6-6z m0-26l175 0c3 0 6 2 6 6 0 3-3 6-6 6l-175 0c-3 0-6-3-6-6 0-4 3-6 6-6z m301 166c0 47-37 86-85 89l0 17c0 21-17 39-38 39l-176 0c-21 0-39-18-39-39l0-17c-45-3-82-42-82-89 0-48 37-86 83-90l0-69c0-21 17-38 38-38l176 0c21 0 39 17 39 38l0 69c47 3 84 42 84 90z m-325 106c0 15 12 27 26 27l176 0c15 0 27-13 27-27l0-42-229 0z m229-265c0-14-12-26-27-26l-176 0c-15 0-26 12-26 26l0 131 229 0z m12 82l0 49 18 0c3 0 6 3 6 6 0 3-3 6-6 6l-289 0c-3 0-6-3-6-6 0-3 3-6 6-6l18 0 0-49c-40 3-71 36-71 77 0 40 31 74 71 77l0-25 253 0 0 25c40-3 72-36 72-78 0-40-32-74-72-76z m9 129c-10 0-18-9-18-19 0-10 8-18 18-18 10 0 19 8 19 18 0 10-9 19-19 19z m0-25c-3 0-6 3-6 6 0 3 3 6 6 6 3 0 6-3 6-6 0-3-3-6-6-6z m-250 13l-39 0c-3 0-6-3-6-6 0-3 3-6 6-6l39 0c3 0 6 3 6 6 0 3-3 6-6 6z"/>
<glyph glyph-name="responsive" unicode="&#116;" d="M284 170l-209 0c-19 0-35 16-35 35l0 187c0 19 16 35 35 35l329 0c19 0 35-16 35-35l0-45c0-3-3-6-6-6-3 0-6 3-6 6l0 45c0 13-10 23-23 23l-329 0c-13 0-23-10-23-23l0-187c0-13 10-23 23-23l209 0c4 0 7-3 7-6 0-3-3-6-7-6z m0 34l-201 0c-4 0-6 3-6 6l0 178c0 3 2 6 6 6l313 0c3 0 6-3 6-6l0-39c0-3-3-6-6-6-3 0-6 3-6 6l0 33-301 0 0-166 196 0c3 0 6-3 6-6 0-3-3-6-7-6z m149-119l-287 0c-3 0-6 3-6 6 0 4 3 7 6 7l287 0c3 0 6-3 6-7 0-3-2-6-6-6z m-244 2c-3 0-6 3-6 6l0 81c0 3 3 6 6 6 4 0 6-3 6-6l0-81c0-3-2-6-6-6z m124-1c-19 0-35 16-35 34l0 201c0 19 16 35 35 35l110 0c19 0 34-16 34-35l0-74-12 1 0 73c0 12-10 22-22 22l-110 0c-12 0-22-10-22-22l0-201c0-12 10-22 22-22 3 0 6-3 6-6 0-3-2-6-6-6z m57 36l-57 0c-3 0-6 3-6 6l0 185c0 3 3 6 6 6l108 0c3 0 6-3 6-6l0-63c0-3-3-6-6-6-3 0-6 3-6 6l0 57-96 0 0-173 51 0c3 0 6-3 6-6 0-3-3-6-6-6z m76-37l-57 0c-14 0-25 12-25 26l0 119c0 14 11 26 25 26l57 0c14 0 25-12 25-26l0-119c0-14-11-26-25-26z m-57 159c-7 0-13-6-13-13l0-120c0-7 6-13 13-13l57 0c7 0 13 6 13 13l0 119c0 8-6 14-13 14l-57 0z m50-130l-41 0c-4 0-6 3-6 6l0 101c0 3 2 6 6 6l41 0c4 0 6-3 6-6l0-101c0-3-2-6-6-6z m-35 12l29 0 0 89-29 0z"/>
<glyph glyph-name="rocket" unicode="&#117;" d="M447 445c-5 4-12 4-17 0-3-3-4-7-3-11l-31-30c0-1 0-1 0-1-13 13-31 20-49 20-19 0-37-8-51-22l-79-86c-10 9-24 14-38 14-16 0-31-6-42-18l-58-63c-2-3-2-6 1-9l16-16c1-1 2-1 4-1 1 0 3 0 4 1l54 43c0 0 3 2 7 2 2 0 4 0 7-2l-12-12c-1-2-2-4-2-6 0 0 2-6 5-15l-11-9c-2-1-3-4-2-6 0-2 10-53 67-67 0 0 0 0 1 0 2 0 3 1 5 2l9 12c4-1 8-2 13-3 0 0 1 0 1 0 2 0 3 0 4 1l12 12c5-7 1-13 0-14l-43-54c-2-3-1-6 1-8l16-16c1-1 2-2 4-2 2 0 3 1 4 2l64 58c22 22 23 57 4 80l85 80c13 14 21 32 21 51 0 16-6 30-15 43 1 0 1 0 1 1l31 30c4-1 8 0 11 3 5 4 5 12 1 16z m-282-165c-9 0-15-4-15-5l-50-39-8 8 54 59c8 9 21 14 33 14 12 0 22-4 30-10l-29-32c-6 5-11 5-15 5z m51-116c-39 11-51 43-54 53l6 5c9-17 25-39 53-52z m84-15l-60-54-8 9 40 49c4 5 9 18 0 30l31 30 1 0c14-19 13-47-4-64z m106 202c0-15-6-30-17-41l-144-136c-56 15-71 62-74 74l54 57 80 88c11 11 26 17 42 17 16 0 31-6 42-17 11-11 17-26 17-42z m-65 12c-5-5-5-13 0-18 4-5 13-5 18 0 5 5 5 13 0 18-5 5-14 5-18 0z m-30-29c-4-5-4-13 0-18 5-5 13-5 18 0 5 5 5 13 0 18-4 5-12 5-18 0z m-29-29c-4-5-4-13 0-18 5-5 13-5 19 0 4 5 4 13 0 18-5 5-14 5-19 0z m-112-142c2 2 2 6 0 8-3 3-6 3-9 0l-55-55c-2-2-2-6 0-8 1-2 3-2 4-2 2 0 4 0 5 2z m-60-20l40 40c2 2 2 6 0 8-2 3-6 3-8 0l-40-39c-2-3-2-6 0-9 1-1 3-1 4-1 2 0 3 0 4 1z m71 9l-41-41c-3-2-3-6 0-8 1-1 2-2 4-2 2 0 3 1 4 2l41 41c3 2 3 6 0 8-2 2-6 2-8 0z m-81-57c0-4-3-7-7-7-3 0-6 3-6 7 0 3 3 6 6 6 4 0 7-3 7-6z m-15-14c0-4-3-6-6-6-3 0-6 2-6 6 0 3 3 6 6 6 3 0 6-3 6-6z m-22-8c-2-2-2-5 0-7 2-3 5-3 7-1 2 2 2 5 0 7-1 2-5 2-7 1z m32 57c0-3-3-6-6-6-4 0-6 3-6 6 0 4 2 6 6 6 3 0 6-2 6-6z m-15-15c2 1 2 4 0 7-2 2-5 2-7 0-2-2-2-5 0-7 2-2 5-2 7 0z m54-24c0-3-3-6-6-6-3 0-6 3-6 6 0 3 3 6 6 6 3 0 6-3 6-6z m-22-8c-2-2-2-5 0-7 2-3 5-3 7-1 2 2 2 5 1 7-2 2-6 2-8 1z"/>
<glyph glyph-name="star" unicode="&#118;" d="M196 258c2 3 2 7-1 9-2 2-6 2-8-1l-66-71c-2-3-2-7 1-9 1-1 2-1 4-1 1 0 3 1 4 2z m46-9c-2 2-6 2-8-1l-104-113c-3-3-2-7 0-9 1-1 3-1 4-1 2 0 3 0 5 2l104 113c2 2 2 6-1 9z m23-39l-58-62c-2-2-2-6 1-8 1-1 3-2 4-2 2 0 3 1 4 2l58 62c2 3 2 7-1 9-2 2-6 2-8-1z m158 75l-35 43c-3 4-4 10-3 14l15 55c2 4 1 8-1 11-3 4-8 5-14 3l-52-21c-2 0-4-1-5-1-4 0-7 1-10 3l-46 32c-6 3-12 3-16-1-1-1-3-4-3-10l3-56c1-4-2-10-6-13l-44-34c-5-4-6-8-5-12 0-4 4-7 9-9l55-14c4-2 9-6 11-10l18-53c2-6 7-9 11-9 2 0 6 1 10 6l30 48c3 3 9 6 13 7l56 1c6 0 10 3 12 7 1 4 0 8-3 13z m-65-9c-9-1-18-6-23-13l-30-46-19 52c-2 8-10 15-18 17l-54 14 44 34c6 6 11 16 11 24l-3 55 45-31c4-3 11-5 16-5 4 0 7 1 10 2l51 20-15-53c-2-8 0-19 5-25l35-43z m-241-102c0-3-2-5-5-5-3 0-6 2-6 5 0 4 3 6 6 6 3 0 5-2 5-6z m-12-13c0-3-2-5-5-5-3 0-6 2-6 5 0 3 3 5 6 5 3 0 5-2 5-5z m-12-8c-2 2-5 2-7 0-1-2-1-5 1-6 1-2 4-2 6 0 2 2 1 4 0 6z m32-38c0-3-2-6-5-6-3 0-6 3-6 6 0 3 3 5 6 5 3 0 5-2 5-5z m-12-14c0-2-2-5-5-5-3 0-5 3-5 5 0 3 2 6 5 6 3 0 5-3 5-6z m-18-8c-2-2-2-4 0-6 2-2 5-2 6 0 2 2 2 5 0 6-2 2-5 2-6 0z m108 35c0-3-2-5-5-5-3 0-6 2-6 5 0 3 3 6 6 6 3 0 5-3 5-6z m-12-13c0-3-2-5-5-5-3 0-5 2-5 5 0 3 2 5 5 5 3 0 5-2 5-5z m-18-8c-2-2-2-5 0-7 2-1 5-1 6 1 2 1 2 4 0 6-2 1-5 1-6 0z"/>
<glyph glyph-name="sync" unicode="&#119;" d="M256 303c-25 0-45-21-45-46 0-25 20-46 45-46 26 0 46 21 46 46 0 25-21 46-46 46z m149 85l11 10c1 1 5 5 3 10 0 2-2 5-8 5l-92 13c-1 0-2 0-2 0-5 0-7-2-8-3-2-4-2-7-2-9l6-46c-17 8-37 14-57 14l0 0c-24 0-46-7-65-19l-40 47c-4 4-8 5-11 5-4 0-8-3-9-4-45-36-72-89-74-147-2-52 15-101 50-140l-11-10c-1-1-5-5-3-10 0-2 3-5 8-5l92-13c1 0 2 0 2 0 5 0 7 2 8 3 2 4 2 7 2 9l-6 50c17-9 37-14 57-14l1 0c22 0 44 6 63 17l42-48c3-5 7-5 10-5 5 0 8 2 10 4 45 36 71 89 74 146 1 52-17 101-51 140z m-296-278l10 10c3 2 3 6 0 8-34 37-52 85-50 136 2 54 27 104 69 138 0 0 1 0 1 0 0 1 1 1 1 1 0 0 0 0 1-1l40-45c-30-23-49-57-50-95-1-33 10-65 33-89 1-1 3-2 4-2 2 0 3 0 5 2l9 8 10-83z m86-19l0 7z m61 54c-22 0-42 6-60 17l-3 26c0 5-4 9-8 9-3 0-5-1-8-3l-8-8c-16 19-25 44-25 71 0 30 11 58 32 80 21 21 50 33 80 33 22 0 42-6 59-17l4-28c0-6 4-10 8-10 2 0 5 2 7 4l9 8c13-15 21-34 24-54 1-5 1-10 1-15 0-30-11-58-32-79-21-22-50-34-80-34z m187 103c-2-54-28-104-70-138 0 0 0 0 0 0 0 0-1-1-1-1 0 0-1 0-2 1l-39 46c30 22 48 57 50 94 1 33-11 65-33 89-1 2-3 2-5 2-1 0-3 0-4-1l-9-9-11 83 84-11-10-10c-3-3-3-6 0-9 34-37 52-85 50-136z"/>
<glyph glyph-name="tap" unicode="&#120;" d="M347 269c-1 15-13 26-28 26-2 0-5 0-7 0-4 13-17 24-32 24-4 0-8-1-12-3l0 36c12 9 19 23 19 39 0 28-23 50-50 50-28 0-50-22-50-50 0-17 8-31 20-40l0-80c0-6-5-12-12-12-4 0-8 3-10 6 0 1 0 1-1 1-5 10-15 17-27 17-16 0-30-14-30-30 0-8 3-15 8-21l64-63c10-11 15-21 15-33 0-36 29-64 64-64 35 0 64 28 64 64l0 17c18 16 27 39 27 63l0 27c0 12-9 23-22 26z m-148 122c0 21 17 38 38 38 21 0 38-17 38-38 0-8-2-16-7-22l0 22c0 17-13 30-30 30-17 0-31-13-31-30l0-23c-5 6-8 14-8 23z m158-176c0-21-10-41-25-55-1-2-2-3-2-5l0-20c0-28-23-52-52-52-29 0-52 24-52 52 0 16-7 30-19 42l-63 63c-4 4-5 8-5 13 0 10 8 18 18 18 7 0 13-4 16-10 0 0 0 0 0-1 4-8 13-13 22-13 13 0 24 11 24 24l0 120c0 10 9 18 19 18 10 0 18-8 18-18l0-86c0-2 1-5 3-6 3 0 5 0 7 2 4 4 9 6 14 6 11 0 21-10 21-21 0-2 1-4 3-5 2-1 4-1 6 0 2 1 5 2 9 2 9 0 16-7 16-16 0-1 0-2 0-3 0-2 0-4 2-5 1-1 2-2 4-2 8 0 15-7 15-15l0-27z m-120 188c-7 0-13-5-13-13 0-7 6-12 13-12 7 0 13 5 13 12 0 8-6 13-13 13z"/>
<glyph glyph-name="tools" unicode="&#121;" d="M475 266c0 0-17 22-40 48l20 19c1 2 1 3 1 5 0 1-1 3-1 4l-61 61c-3 2-6 2-9 0l-19-19c-27 24-50 41-51 41-2 2-5 2-8 0l-65-65c-2-2-2-6 0-9 0 0 20-24 41-49l-39-39-15 15c10 35 1 72-25 98-19 18-43 29-70 29-14 0-26-3-39-8-2-1-3-3-4-5 0-2 1-4 2-5l61-61c-3-5-9-12-18-22-10-9-18-16-22-19l-61 62c-1 1-3 2-5 1-2 0-3-1-4-3-16-38-8-80 21-109 18-19 43-29 69-29 9 0 18 1 26 3l16-15-39-39c-2-2-2-5-1-7 1-1 9-14 29-34 21-21 34-29 34-29 1-1 2-1 4-1 1 0 3 1 4 2l39 38 21-21c9-9 21-14 34-14 12 0 24 5 34 14 9 9 14 21 14 34 0 13-5 25-14 34l-22 22 39 39c25-22 49-41 49-41 1-1 3-1 4-1 1 0 3 0 4 1l66 66c2 2 2 5 0 8z m-86 124l53-52-15-15c-8 9-17 19-27 28-8 8-17 17-26 25z m-188-290c-5 3-15 11-28 24-12 13-20 23-24 28l35 35 52-52z m125 64c7-7 10-16 10-25 0-10-3-19-10-25-7-7-16-11-26-11-9 0-18 4-25 11l-109 108c-1 1-3 1-5 1 0 0-1 0-1 0-9-2-17-4-26-4-23 0-45 9-61 25-23 23-31 57-22 87l58-58c2-2 5-3 7-1 1 0 12 7 28 23 17 17 23 28 23 28 2 2 2 5 0 7l-59 59c9 2 17 4 26 4 23 0 45-9 61-25 24-24 32-58 21-90-1-2 0-4 2-6z m-20 40l-52 52 37 37c9-10 18-19 25-27 8-8 18-17 27-26z m98 1c-13 10-55 45-79 70-25 25-60 66-71 80l58 57c12-9 49-38 80-70 31-31 61-68 70-80z"/>
<glyph glyph-name="webdev" unicode="&#122;" d="M398 291l0 16c0 6-6 12-12 12l-274 0c-7 0-12-5-12-12l0-16c0-6 5-12 12-12l274 0c6 0 12 6 12 12z m-12 0l-274 0 0 16 274 0z m-8-108c-18 0-33-15-33-33 0-18 15-32 33-32 18 0 32 15 32 32 0 19-14 33-32 33z m0-53c-11 0-20 9-20 20 0 11 9 21 20 21 11 0 20-10 20-21 0-11-9-20-20-20z m79 46l-6 0-4 8 5 5c2 2 3 4 3 7 0 2-1 5-3 7l-22 22c-1 1-2 1-3 2l0 141c0 19-16 34-35 34l-288 0c-19 0-35-15-35-34l0-224c0-19 16-34 35-34l199 0c-2-4-2-8 1-12l22-22c4-3 10-3 14 0l5 5c1 0 2-1 4-2 2 0 3-1 4-1l0-7c0-6 4-10 9-10l32 0c5 0 9 4 9 10l0 8 8 3 5-5c4-4 10-4 14 0l22 22c3 3 3 9 0 13l-5 6c0 1 1 3 2 5 0 1 1 2 1 3l7 0c5 0 10 4 10 10l0 31c0 4-4 9-10 9z m-72 201c-1 2-1 4 0 6 2 1 4 1 6 0l5-5 4 5c2 1 4 1 6 0 2-2 2-4 0-6l-5-5 5-4c2-2 2-4 0-6-1-1-2-1-3-1-1 0-2 0-3 1l-4 5-5-5c-1-1-2-1-3-1-1 0-2 0-3 1-1 2-1 4 0 6l5 4z m-31-2l15 0c2 0 4-1 4-4 0-2-2-4-4-4l-15 0c-3 0-5 2-5 4 0 3 2 4 5 4z m-250-253c-13 0-23 10-23 22l0 202 333 0 0-123-2-3c-1 1-3 2-6 3-1 0-2 1-3 1l0 6c0 5-4 10-9 10l-32 0c-5 0-9-5-9-10l0-6-9-4-5 5c-3 3-10 3-13 0l-22-22c-4-4-4-10 0-14l4-4c0-1-1-3-2-5-1-1-1-3-1-4l-7 0c-5 0-9-4-9-9l0-32c0-5 4-10 9-10l7 0c1-1 1-2 2-3z m351 15l-6 0c-4 0-9-3-10-7 0 0 0-1-1-3-1-3-2-5-2-5-2-4-1-10 2-13l4-4-19-18-4 4c-2 2-5 3-8 3-1 0-3-1-4-1l-8-3c-5-2-8-6-8-11l0-6-26 0 0 6c0 5-3 10-8 11 0 0-1 0-3 1-2 1-4 2-4 2-4 2-10 1-13-2l-4-4-18 19 4 4c3 3 4 8 2 12 0 0-1 2-2 4-1 2-2 4-2 4-1 4-6 8-10 8l-6 0 0 26 5 0c5 0 9 3 10 8 0 0 1 1 1 4 1 2 2 4 2 4 2 4 2 9-2 13l-3 3 18 19 3-4c2-2 5-3 8-3 2 0 4 1 5 1l9 4c5 1 8 6 8 10l0 5 26 0 0-5c0-4 3-9 8-10 0 0 1-1 3-2 3-1 5-2 5-2 4-2 10-1 13 2l3 3 18-18-3-3c-3-4-4-9-2-13l3-9c2-4 6-7 11-7l5 0z"/>
<glyph glyph-name="webpage" unicode="&#65;" d="M396 331l-89 94c-1 1-2 2-4 2l-152 0c-21 0-37-17-37-37l0-267c0-21 16-38 37-38l210 0c21 0 37 17 37 38l0 204c0 1 0 3-2 4z m-91 79l73-77-48 0c-14 0-25 11-25 25l0 52z m81-287c0-14-11-25-25-25l-210 0c-14 0-25 11-25 25l0 267c0 14 11 25 25 25l142 0 0-57c0-21 17-37 37-37l56 0z m-132 180c-20 0-41-8-57-21-20-16-32-37-34-62-3-24 4-48 19-68 18-22 44-34 72-34 21 0 41 7 58 20 40 32 46 91 14 130-17 22-43 35-72 35z m51-155c-14-12-32-18-50-18-1 0-3 0-4 0 3 5 2 15-3 26-2 4-4 9-8 12 2 5 2 10-1 14-5 5-13 6-22 2-2 7-11 12-21 12-8 0-15-3-19-7-2 10-3 20-2 30 0 4 1 10 2 14 1-1 1-1 2-2 4-6 12-7 18-3 0 0 0 0 0 0 1-1 2-3 2-5 5-6 14-8 20-3 7 4 9 13 5 20-1 1-3 2-4 3 2 7 0 15-5 21-2 4-6 7-9 9 14 11 30 16 48 16 0 0 0 0 1 0-8-7-9-19-2-27 1-1 2-2 3-3 12-7 23-1 23-1 1 0 2 0 3 1 1 1 2 3 3 4 4-1 8 0 12 2 3 3 4 6 4 9 6-4 10-8 14-13-5-1-11-4-16-8-8-7-14-17-14-26-2-1-4-2-6-4-8-6-9-18-3-27 7-8 19-10 28-3 2 2 3 3 4 5 1 0 1-1 1-1 6-7 16-8 24-4-3-16-13-33-28-45z"/>
</font>
</defs>
</svg>
