<?xml version="1.0" encoding="utf-8"?>
<!-- Generator: Adobe Illustrator 18.1.1, SVG Export Plug-In . SVG Version: 6.00 Build 0)  -->
<svg version="1.1" id="Layer_1" xmlns="http://www.w3.org/2000/svg" xmlns:xlink="http://www.w3.org/1999/xlink" x="0px" y="0px"
	 viewBox="-579 797.6 143.1 135.6" enable-background="new -579 797.6 143.1 135.6" xml:space="preserve">
<g>
	<g>
		
			<line fill="none" stroke="#EAEAEA" stroke-width="2" stroke-linecap="round" stroke-linejoin="round" x1="-549.2" y1="798.6" x2="-549.2" y2="799.1"/>
		
			<path fill="none" stroke="#EAEAEA" stroke-width="2" stroke-linecap="round" stroke-linejoin="round" stroke-dasharray="1.0035,6.9244" d="
			M-549.2,806.1V849c0,7.9-6.4,14.3-14.4,14.3c-8,0-14.4-6.4-14.4-14.3c0-7.9,6.4-14.3,14.4-14.3l50.5,0.1c5,0,13.5,3.4,17,6.9
			l34.8,33.5c5.7,5.7,14.8,5.7,20.5,0.2c5.6-5.6,5.6-14.7-0.1-20.4c-5.7-5.7-14.8-5.7-20.5-0.1l-34.7,33.8c-3.5,3.5-12.1,7.4-17,7.4
			l-50.5,0c-8,0-14.4-6.4-14.4-14.3c0-7.9,6.4-14.3,14.4-14.3c8,0,14.4,6.4,14.4,14.3v46.4"/>
		
			<line fill="none" stroke="#EAEAEA" stroke-width="2" stroke-linecap="round" stroke-linejoin="round" x1="-549.2" y1="931.6" x2="-549.2" y2="932.1"/>
	</g>
</g>
</svg>
