<?xml version="1.0" encoding="utf-8"?>
<!-- Generator: Adobe Illustrator 16.0.0, SVG Export Plug-In . SVG Version: 6.00 Build 0)  -->
<!DOCTYPE svg PUBLIC "-//W3C//DTD SVG 1.0//EN" "http://www.w3.org/TR/2001/REC-SVG-20010904/DTD/svg10.dtd">
<svg version="1.0" id="Layer_1" xmlns="http://www.w3.org/2000/svg" xmlns:xlink="http://www.w3.org/1999/xlink" x="0px" y="0px"
	 width="143.078px" height="135.564px" viewBox="0 0 143.078 135.564" enable-background="new 0 0 143.078 135.564"
	 xml:space="preserve">
<g>
	<g>
		
			<line fill="none" stroke="#DEDEDD" stroke-width="2" stroke-linecap="round" stroke-linejoin="round" x1="29.797" y1="1.07" x2="29.797" y2="1.57"/>
		
			<path fill="none" stroke="#DEDEDD" stroke-width="2" stroke-linecap="round" stroke-linejoin="round" stroke-dasharray="1.0035,6.9244" d="
			M29.797,8.494v42.907c0,7.89-6.449,14.287-14.405,14.287C7.442,65.688,1,59.291,1,51.401c0-7.903,6.442-14.3,14.393-14.3
			l50.501,0.1c4.955,0,13.479,3.436,17.048,6.878l34.765,33.496c5.657,5.656,14.816,5.736,20.451,0.152
			c5.645-5.584,5.598-14.715-0.1-20.365c-5.696-5.65-14.846-5.683-20.452-0.093L82.902,91.075
			c-3.548,3.464-12.053,7.356-17.008,7.356l-50.501,0.033C7.442,98.464,1,92.067,1,84.164c0-7.89,6.442-14.286,14.393-14.286
			c7.956,0,14.405,6.396,14.405,14.286v46.368"/>
		
			<line fill="none" stroke="#DEDEDD" stroke-width="2" stroke-linecap="round" stroke-linejoin="round" x1="29.797" y1="133.994" x2="29.797" y2="134.494"/>
	</g>
</g>
</svg>
